<svg viewBox="0 0 395 592" fill="none" xmlns="http://www.w3.org/2000/svg">
<path d="M119.897 303.763C117.961 299.55 116.039 295.319 114.139 291.079L6.69165 332.762C4.76776 333.508 3.5 335.36 3.5 337.423V579.688C3.5 583.336 7.28113 585.756 10.5941 584.228L126 531L119.897 303.763Z" fill="#0085FF"/>
<path d="M267.5 334V587.5L388.08 532.336C389.859 531.522 391 529.745 391 527.789V296.143C391 292.672 387.55 290.257 384.288 291.445L267.5 334Z" fill="#0085FF"/>
<path d="M130.03 59.0607C140.667 59.0607 149.29 67.7426 149.29 78.4522C149.29 89.1618 140.667 97.8436 130.03 97.8436C119.394 97.8436 110.771 89.1618 110.771 78.4522C110.771 67.7426 119.394 59.0607 130.03 59.0607Z" fill="#0085FF"/>
<path d="M114.139 291.079C116.039 295.319 117.961 299.55 119.897 303.763C148.247 365.469 179.597 423.197 190.766 443.401C192.636 446.784 197.421 446.791 199.327 443.428C209.039 426.296 233.686 382.081 258.686 331.32C283.1 281.747 307.035 228.918 318.54 185.987H296.963C294.577 185.987 292.524 187.672 292.059 190.013L277.628 262.662C276.562 268.03 268.886 268.03 267.82 262.662L253.389 190.013C252.924 187.672 250.871 185.987 248.485 185.987H232.214C229.814 185.987 227.752 187.692 227.302 190.05L203.298 315.872C202.262 321.304 194.477 321.283 193.47 315.845L170.182 190.076C169.743 187.706 167.675 185.987 165.265 185.987H148.982C146.612 185.987 144.568 187.651 144.086 189.972L128.903 263.227C127.797 268.564 120.164 268.532 119.102 263.187L104.567 190.013C104.103 187.672 102.049 185.987 99.6632 185.987H74.3325C82.5337 217.811 96.8579 252.527 114.139 291.079Z" fill="#0085FF"/>
<path d="M126 531L267.5 587.5M126 531L119.897 303.763M126 531L10.5941 584.228M267.5 587.5V334M267.5 587.5L388.08 532.336M267.5 334L258.686 331.32M267.5 334L384.288 291.445M119.897 303.763C117.961 299.55 116.039 295.319 114.139 291.079M119.897 303.763C148.247 365.469 179.597 423.197 190.766 443.401C192.636 446.784 197.421 446.791 199.327 443.428C209.039 426.296 233.686 382.081 258.686 331.32M114.139 291.079L6.69165 332.762M114.139 291.079C96.8579 252.527 82.5337 217.811 74.3325 185.987M258.686 331.32C283.1 281.747 307.035 228.918 318.54 185.987M384.288 291.445C387.55 290.257 391 292.672 391 296.143M384.288 291.445V291.445C387.55 290.257 391 292.672 391 296.143V296.143M391 296.143V527.789M391 527.789C391 529.745 389.859 531.522 388.08 532.336M391 527.789V527.789C391 529.745 389.859 531.522 388.08 532.336V532.336M10.5941 584.228C7.28113 585.756 3.5 583.336 3.5 579.688M10.5941 584.228V584.228C7.28113 585.756 3.5 583.336 3.5 579.688V579.688M3.5 579.688V337.423M3.5 337.423C3.5 335.36 4.76776 333.508 6.69165 332.762M3.5 337.423V337.423C3.5 335.36 4.76775 333.508 6.69165 332.762V332.762M74.3325 185.987H99.6632C102.049 185.987 104.103 187.672 104.567 190.013L119.102 263.187C120.164 268.532 127.797 268.564 128.903 263.227L144.086 189.972C144.568 187.651 146.612 185.987 148.982 185.987H165.265C167.675 185.987 169.743 187.706 170.182 190.076L193.47 315.845C194.477 321.283 202.262 321.304 203.298 315.872L227.302 190.05C227.752 187.692 229.814 185.987 232.214 185.987H248.485C250.871 185.987 252.924 187.672 253.389 190.013L267.82 262.662C268.886 268.03 276.562 268.03 277.628 262.662L292.059 190.013C292.524 187.672 294.577 185.987 296.963 185.987H318.54M74.3325 185.987C70.4365 170.869 67.3552 152.923 67 142.002C63.1626 24 158 4.41225 198.313 4.41223C266 4.41223 326 33.5 326 142.002C326 153.32 322.748 170.285 318.54 185.987M130.03 59.0607C140.667 59.0607 149.29 67.7426 149.29 78.4522C149.29 89.1618 140.667 97.8436 130.03 97.8436C119.394 97.8436 110.771 89.1618 110.771 78.4522C110.771 67.7426 119.394 59.0607 130.03 59.0607Z" stroke="#0085FF" stroke-width="7"/>
</svg>
