<svg viewBox="0 0 265 448" xmlns="http://www.w3.org/2000/svg">
<path d="M101.091 96.4127C106 96.4127 109.98 100.42 109.98 105.363C109.98 110.305 106 114.312 101.091 114.312C96.1817 114.312 92.202 110.305 92.202 105.363C92.202 100.42 96.1817 96.4127 101.091 96.4127Z" />
<path fill-rule="evenodd" clip-rule="evenodd" d="M126.823 442.504C128.693 445.887 133.351 445.913 135.258 442.55C157.781 402.83 262 215.032 262 141.002C262 66.836 205.427 2.35855 131 3.50192C57.646 4.6288 3.00004 67.6392 3 141.002C2.99996 214.569 104.781 402.639 126.823 442.504ZM72.2634 149.743C72.1201 152.6 74.3973 154.994 77.2571 154.994H84.8652C87.2511 154.994 89.3045 156.68 89.7694 159.02L93.4627 177.613C94.5244 182.958 102.157 182.99 103.263 177.654L107.134 158.979C107.615 156.658 109.659 154.994 112.03 154.994H115.114C117.524 154.994 119.591 156.714 120.03 159.084L127.763 200.845C128.77 206.283 136.554 206.304 137.591 200.872L145.568 159.057C146.018 156.699 148.08 154.994 150.48 154.994H153.552C155.938 154.994 157.991 156.68 158.456 159.02L162.045 177.088C163.112 182.456 170.787 182.456 171.854 177.088L175.443 159.02C175.908 156.68 177.961 154.994 180.347 154.994H187C189.761 154.994 192 152.755 192 149.994V114.719C189.5 90.5 176.242 71.1903 132.606 71.1903C99 71.1903 77.5 84.5 74.0202 114.719L72.2634 149.743Z"/>
<path d="M101.091 96.4127C106 96.4127 109.98 100.42 109.98 105.363C109.98 110.305 106 114.312 101.091 114.312C96.1817 114.312 92.202 110.305 92.202 105.363C92.202 100.42 96.1817 96.4127 101.091 96.4127Z" stroke-width="5"/>
<path fill-rule="evenodd" clip-rule="evenodd" d="M126.823 442.504C128.693 445.887 133.351 445.913 135.258 442.55C157.781 402.83 262 215.032 262 141.002C262 66.836 205.427 2.35855 131 3.50192C57.646 4.6288 3.00004 67.6392 3 141.002C2.99996 214.569 104.781 402.639 126.823 442.504ZM72.2634 149.743C72.1201 152.6 74.3973 154.994 77.2571 154.994H84.8652C87.2511 154.994 89.3045 156.68 89.7694 159.02L93.4627 177.613C94.5244 182.958 102.157 182.99 103.263 177.654L107.134 158.979C107.615 156.658 109.659 154.994 112.03 154.994H115.114C117.524 154.994 119.591 156.714 120.03 159.084L127.763 200.845C128.77 206.283 136.554 206.304 137.591 200.872L145.568 159.057C146.018 156.699 148.08 154.994 150.48 154.994H153.552C155.938 154.994 157.991 156.68 158.456 159.02L162.045 177.088C163.112 182.456 170.787 182.456 171.854 177.088L175.443 159.02C175.908 156.68 177.961 154.994 180.347 154.994H187C189.761 154.994 192 152.755 192 149.994V114.719C189.5 90.5 176.242 71.1903 132.606 71.1903C99 71.1903 77.5 84.5 74.0202 114.719L72.2634 149.743Z" stroke-width="5"/>
</svg>
