<svg width="2521" height="906" viewBox="0 0 2521 906" fill="none" xmlns="http://www.w3.org/2000/svg">
<g opacity="0.04">
<path d="M100.664 902.903V100.667H453.061L566.522 607.904L683.987 100.667H1029.71V902.903H798.783L806.792 330.258L657.29 902.903H474.418L322.247 330.258L331.591 902.903H100.664Z" fill="#0085FF"/>
<path fill-rule="evenodd" clip-rule="evenodd" d="M1268.62 302.227V358.29L1115.11 388.991L1268.62 421.027V458.403L1032.35 502.452L1268.62 547.837V585.212L1115.11 615.913L1268.62 646.614V698.673H1400.77C1451.49 694.668 1551.07 649.818 1543.59 502.452C1548.49 446.389 1526.77 329.19 1400.77 308.901L1268.62 302.227ZM1431.48 427.702C1447.7 427.702 1460.85 414.554 1460.85 398.336C1460.85 382.117 1447.7 368.969 1431.48 368.969C1415.26 368.969 1402.12 382.117 1402.12 398.336C1402.12 414.554 1415.26 427.702 1431.48 427.702Z" fill="#0085FF"/>
<path fill-rule="evenodd" clip-rule="evenodd" d="M1419.59 102.002C1547.73 102.447 1800.55 185.563 1786.67 514.466C1773.94 816.148 1568.57 899.065 1442.3 905.573H1410.25C1420.15 906.125 1430.9 906.16 1442.3 905.573H1934.84L1972.21 789.442H2229.84L2271.22 905.573H2520.83L2223.16 102.002H1419.59ZM2171.21 613.912L2103.01 363.63L2034.8 613.912H2171.21Z" fill="#0085FF"/>
<path d="M0 802.236V0H352.397L465.858 507.237L583.323 0H929.045V802.236H698.119L706.128 229.592L556.626 802.236H373.754L221.583 229.592L230.927 802.236H0Z" fill="#CC1E1E"/>
<path fill-rule="evenodd" clip-rule="evenodd" d="M1167.96 201.56V257.623L1014.46 288.324L1167.96 320.36V357.736L931.695 401.785L1167.96 447.17V484.545L1014.46 515.246L1167.96 545.948V598.006H1300.11C1350.83 594.002 1450.41 549.151 1442.94 401.785C1447.83 345.722 1426.12 228.524 1300.11 208.234L1167.96 201.56ZM1330.83 327.035C1347.05 327.035 1360.19 313.887 1360.19 297.669C1360.19 281.45 1347.05 268.302 1330.83 268.302C1314.61 268.302 1301.46 281.45 1301.46 297.669C1301.46 313.887 1314.61 327.035 1330.83 327.035Z" fill="#CC1E1E"/>
<path fill-rule="evenodd" clip-rule="evenodd" d="M1318.93 1.33496C1447.07 1.77991 1699.89 84.8957 1686.01 413.799C1673.27 715.481 1467.9 798.398 1341.63 804.906H1309.58C1319.49 805.458 1330.24 805.493 1341.63 804.906H1834.17L1871.55 688.775H2129.17L2170.55 804.906H2420.17L2122.5 1.33496H1318.93ZM2070.55 513.245L2002.35 262.964L1934.14 513.245H2070.55Z" fill="#CC1E1E"/>
<path d="M67.1094 869.347V67.1108H419.506L532.967 574.348L650.432 67.1108H996.155V869.347H765.228L773.237 296.703L623.736 869.347H440.863L288.692 296.703L298.036 869.347H67.1094Z" fill="white"/>
<path fill-rule="evenodd" clip-rule="evenodd" d="M1235.07 268.671V324.734L1081.56 355.435L1235.07 387.472V424.847L998.799 468.897L1235.07 514.281V551.656L1081.56 582.358L1235.07 613.059V665.117H1367.21C1417.94 661.113 1517.52 616.262 1510.04 468.897C1514.94 412.833 1493.22 295.635 1367.21 275.345L1235.07 268.671ZM1397.93 394.146C1414.15 394.146 1427.3 380.998 1427.3 364.779C1427.3 348.561 1414.15 335.413 1397.93 335.413C1381.71 335.413 1368.57 348.561 1368.57 364.779C1368.57 380.998 1381.71 394.146 1397.93 394.146Z" fill="white"/>
<path fill-rule="evenodd" clip-rule="evenodd" d="M1386.04 68.4455C1514.18 68.8904 1767 152.006 1753.12 480.91C1740.38 782.592 1535.01 865.508 1408.74 872.017H1376.69C1386.6 872.569 1397.35 872.604 1408.74 872.017H1901.28L1938.66 755.886H2196.28L2237.66 872.017H2487.28L2189.61 68.4455H1386.04ZM2137.66 580.355L2069.45 330.073L2001.25 580.355H2137.66Z" fill="white"/>
</g>
</svg>
